<svg id="Layer_1" data-name="Layer 1" xmlns="http://www.w3.org/2000/svg" viewBox="0 0 17.05 25"><title>currency_switch</title><polygon points="1.24 10.59 0 10.59 0 3.99 15.71 3.99 15.71 5.23 1.24 5.23 1.24 10.59" fill="#a3a8ad"/><polygon points="12.2 0 11.22 0.95 14.32 4.06 15.08 4.67 11.22 8.53 12.2 9.48 16.45 5.23 16.91 4.74 16.45 4.25 12.2 0" fill="#a3a8ad"/><polygon points="17.05 21.01 1.34 21.01 1.34 19.77 15.81 19.77 15.81 14.41 17.05 14.41 17.05 21.01" fill="#a3a8ad"/><polygon points="0.61 19.77 0.14 20.26 0.61 20.75 4.85 25 5.84 24.05 2.73 20.94 1.48 20.83 5.84 16.47 4.85 15.52 0.61 19.77" fill="#a3a8ad"/></svg>