<?xml version="1.0" encoding="utf-8" ?>
<!-- Generator: Adobe Illustrator 21.0.2, SVG Export Plug-In . SVG Version: 6.00 Build 0)  -->
<svg version="1.1" id="Layer_1" xmlns="http://www.w3.org/2000/svg" xmlns:xlink="http://www.w3.org/1999/xlink" x="0px" y="0px"
     viewBox="0 0 122 102" style="enable-background:new 0 0 122 102;" xml:space="preserve">
<polygon fill="#D9AB35" points="53.5,22.9 59.7,16.7 96,53 98.8,50.1 59.7,11 50.6,20.1 " />

<polygon fill="#D9AB35" points="76.3,72.7 96.8,52.1 94,49.3 73.7,69.6 " />

<polygon fill="#FFFFFF" points="41.8,28.9 20.6,50.1 59.7,89.2 68.6,80.4 65.7,77.6 59.7,83.6 26.3,50.1 44.5,31.9 " />

<polyline fill="#D9AB35" points="75.4,68.2 75.4,56.8 71.8,56.9 71.8,72.5 71.9,74.3 73.6,74.3 89.3,74.3 89.3,70.7 77.9,70.7 " />

<polyline fill="#FFFFFF" points="42.6,33.6 42.6,45 46.2,44.9 46.2,29.3 46.1,27.5 44.4,27.5 28.7,27.5 28.7,31.1 40.1,31.1 " />

</svg>