<svg id="Layer_1" data-name="Layer 1" xmlns="http://www.w3.org/2000/svg" xmlns:xlink="http://www.w3.org/1999/xlink" viewBox="0 0 14.81 24"><defs><clipPath id="clip-path" transform="translate(-4.59 0)"><rect width="24" height="24" fill="none"/></clipPath></defs><title>faq</title><g clip-path="url(#clip-path)"><path d="M12.21,17.14H9.33V13.71A2.14,2.14,0,0,1,10.15,12l.82-.69a2.62,2.62,0,0,1,1.65-.68h2.23a4,4,0,0,0,.79-.05,1.8,1.8,0,0,0,.47-.29,1.14,1.14,0,0,0,.37-.4,2.88,2.88,0,0,0,.05-.67V3.81a2.88,2.88,0,0,0-.05-.67,1.06,1.06,0,0,0-.37-.4,1.8,1.8,0,0,0-.47-.29,4,4,0,0,0-.79-.05H9.15a3.82,3.82,0,0,0-.78.05,1.67,1.67,0,0,0-.48.29.94.94,0,0,0-.36.4,2.26,2.26,0,0,0-.06.67v.65H4.59V3.09a2.15,2.15,0,0,1,.83-1.72L6.24.69A2.58,2.58,0,0,1,7.89,0h8.22a2.58,2.58,0,0,1,1.65.69l.82.68a2.15,2.15,0,0,1,.83,1.72v7.09a1.81,1.81,0,0,1-.76,1.41l-.89.75a2.58,2.58,0,0,1-1.65.69H13.89a3.94,3.94,0,0,0-.79.05,1.46,1.46,0,0,0-.48.29.94.94,0,0,0-.36.4,2.35,2.35,0,0,0,0,.66Zm0,5.63V22a1.44,1.44,0,0,0-.28-1,1.76,1.76,0,0,0-1.1-.24H10.7A1.62,1.62,0,0,0,9.63,21a.74.74,0,0,0-.27.35,4,4,0,0,0,0,.65v.79a1.41,1.41,0,0,0,.27,1,1.76,1.76,0,0,0,1.1.24h.17a1.54,1.54,0,0,0,1-.24.78.78,0,0,0,.27-.34,3.68,3.68,0,0,0,0-.65" transform="translate(-4.59 0)" fill="#a2acb6"/></g></svg>