<svg id="Layer_1" data-name="Layer 1" xmlns="http://www.w3.org/2000/svg" viewBox="0 0 24.99 25"><title>paste</title><path d="M1.51,5.76H19.26V23.49H1.51ZM0,25H20.76V4.24H0Z" transform="translate(-0.01 0)" fill="#fff"/><rect x="4.24" y="3.26" width="1.51" height="0.71" fill="#fff"/><polygon points="4.24 0 4.24 1.46 4.99 1.46 5.7 1.46 5.7 0.75 5.7 0 4.24 0" fill="#fff"/><rect x="18.04" width="1.38" height="1.51" fill="#fff"/><rect x="7.07" width="1.37" height="1.51" fill="#fff"/><rect x="15.3" width="1.37" height="1.51" fill="#fff"/><rect x="9.82" width="1.38" height="1.51" fill="#fff"/><rect x="12.56" width="1.37" height="1.51" fill="#fff"/><rect x="20.79" width="1.38" height="1.51" fill="#fff"/><polygon points="23.53 0 23.53 0.75 23.53 1.46 24.24 1.46 24.99 1.46 24.99 0 23.53 0" fill="#fff"/><rect x="23.48" y="8.32" width="1.51" height="1.37" fill="#fff"/><rect x="23.48" y="5.58" width="1.51" height="1.38" fill="#fff"/><rect x="23.48" y="2.83" width="1.51" height="1.37" fill="#fff"/><rect x="23.48" y="13.81" width="1.51" height="1.37" fill="#fff"/><rect x="23.48" y="11.07" width="1.51" height="1.37" fill="#fff"/><rect x="23.48" y="16.55" width="1.51" height="1.37" fill="#fff"/><polygon points="24.24 19.3 23.53 19.3 23.53 20 23.53 20.76 24.99 20.76 24.99 19.3 24.24 19.3" fill="#fff"/><rect x="21.09" y="19.25" width="0.71" height="1.51" fill="#fff"/></svg>