<svg id="Layer_1" data-name="Layer 1" xmlns="http://www.w3.org/2000/svg" xmlns:xlink="http://www.w3.org/1999/xlink" viewBox="0 0 25.75 25.75"><defs><clipPath id="clip-path" transform="translate(5 4.94)"><path d="M5,8.53l1.64,1.6a.65.65,0,0,0,.88,0L10.8,6.9a.78.78,0,0,0,0-1.1.81.81,0,0,0-1.12,0L7,8.36l-1-.93A.81.81,0,0,0,5,7.44.76.76,0,0,0,5,8.53Zm3,5.71a6.3,6.3,0,1,1,6.3-6.3A6.31,6.31,0,0,1,7.92,14.24ZM7.88.06a7.88,7.88,0,1,0,7.87,7.88A7.88,7.88,0,0,0,7.88.06Z" fill="none" clip-rule="evenodd"/></clipPath><clipPath id="clip-path-2" transform="translate(5 4.94)"><rect width="16" height="16" fill="none"/></clipPath></defs><title>CircleCheck</title><g clip-path="url(#clip-path)"><g clip-path="url(#clip-path-2)"><rect width="25.75" height="25.75" fill="#a3a8ad"/></g></g></svg>