<svg id="Layer_1" data-name="Layer 1" xmlns="http://www.w3.org/2000/svg" xmlns:xlink="http://www.w3.org/1999/xlink" viewBox="0 0 88.88 100"><defs><clipPath id="clip-path" transform="translate(-4.68 0)"><rect width="100" height="100" fill="none"/></clipPath></defs><title>fingerprint_large</title><g clip-path="url(#clip-path)"><path d="M22.28,12.66a3.06,3.06,0,0,1-4.05-1.39,3,3,0,0,1,1.36-4A66.19,66.19,0,0,1,49.45,0,69.52,69.52,0,0,1,79.22,7.22a3,3,0,0,1,1.42,4,3,3,0,0,1-4,1.42A63.5,63.5,0,0,0,49.42,6a60,60,0,0,0-27.14,6.64M10,37.37a3,3,0,0,1-4.25.46,3,3,0,0,1-.45-4.21,57.29,57.29,0,0,1,10.14-9.94A56.07,56.07,0,0,1,49.71,12.11,54.34,54.34,0,0,1,83.49,24,55.48,55.48,0,0,1,93,33.65a3,3,0,0,1-.59,4.24,3,3,0,0,1-4.21-.58,49.86,49.86,0,0,0-8.42-8.61A48.11,48.11,0,0,0,49.68,18.14,49.89,49.89,0,0,0,19.14,28.47a52,52,0,0,0-9.1,8.9m9.68,41.75A3,3,0,0,1,14.44,82,43.71,43.71,0,0,1,8.87,63.38a35.76,35.76,0,0,1,5.31-20.92A40.58,40.58,0,0,1,29.4,28.11a42.7,42.7,0,0,1,18.08-5.18,41.84,41.84,0,0,1,22.73,5.31A40.33,40.33,0,0,1,86.15,45c6,11.57,4.95,20.6,1,26.37a16.61,16.61,0,0,1-7.65,6.05,15.26,15.26,0,0,1-9.16.71C65.22,76.89,60.92,73,59.72,66c-1-6-4.79-9.46-8.91-10.56a11.39,11.39,0,0,0-5.31-.13,8.77,8.77,0,0,0-4.21,2.27l-.13.13c-2.3,2.46-3.24,6.7-1.17,12.76A37.14,37.14,0,0,0,48.22,84.3a42.67,42.67,0,0,0,15.19,9.88,3,3,0,0,1-2.27,5.6A48.52,48.52,0,0,1,43.88,88.45a42.63,42.63,0,0,1-9.59-16c-2.94-8.58-1.23-15,2.56-18.91l.17-.2a14.77,14.77,0,0,1,7.19-3.85,17,17,0,0,1,8.16.16c6.18,1.65,11.82,6.74,13.31,15.42.71,4.14,3.14,6.47,6,7.15a9.29,9.29,0,0,0,5.6-.45,10.59,10.59,0,0,0,4.86-3.89C85,63.77,85.63,56.94,80.8,47.74A34.28,34.28,0,0,0,67.26,33.49,35.6,35.6,0,0,0,47.77,29a36.19,36.19,0,0,0-15.48,4.44,35,35,0,0,0-13,12.18,30.1,30.1,0,0,0-4.4,17.49,37.38,37.38,0,0,0,4.82,16.06M77.89,61.5a3,3,0,0,1-6,.75c-1.33-10.66-8.29-17-16.33-19.18a24.61,24.61,0,0,0-15.35.75,19.1,19.1,0,0,0-10.75,10.1c-3.89,8.81-2.11,22.58,11.17,41.33a3,3,0,1,1-4.89,3.47C21,78,19.3,62.05,23.93,51.5A25.16,25.16,0,0,1,38.05,38.18a30.79,30.79,0,0,1,19.11-.93C67.33,40,76.17,48,77.89,61.5m-32,2a3,3,0,1,1,6-.68c.85,7.29,3.37,12.73,7.78,16.19s11,5.12,19.82,4.67a3,3,0,1,1,.32,6c-10.33.55-18.23-1.52-23.87-6s-9-11.3-10-20.24" transform="translate(-4.68 0)" fill="#999da1"/></g></svg>