<?xml version="1.0" encoding="utf-8"?>
<!-- Generator: Adobe Illustrator 21.0.2, SVG Export Plug-In . SVG Version: 6.00 Build 0)  -->
<svg version="1.1" id="Layer_1" xmlns="http://www.w3.org/2000/svg" xmlns:xlink="http://www.w3.org/1999/xlink" x="0px" y="0px"
	 viewBox="0 0 80 100" style="enable-background:new 0 0 80 100;" xml:space="preserve">
<style type="text/css">
	.st0{enable-background:new    ;}
	.st1{clip-path:url(#SVGID_4_);}
	.st2{clip-path:url(#SVGID_6_);}
	.st3{clip-path:url(#SVGID_8_);fill:#FFFFFF;}
	.st4{clip-path:url(#SVGID_10_);}
	.st5{clip-path:url(#SVGID_12_);fill:#FFFFFF;}
	.st6{clip-path:url(#SVGID_14_);}
	.st7{clip-path:url(#SVGID_16_);fill:#65696E;}
	.st8{clip-path:url(#SVGID_18_);}
	.st9{clip-path:url(#SVGID_20_);fill:#65696E;}
	.st10{clip-path:url(#SVGID_22_);}
	.st11{clip-path:url(#SVGID_24_);fill:#65696E;}
	.st12{clip-path:url(#SVGID_26_);}
	.st13{clip-path:url(#SVGID_28_);fill:#65696E;}
	.st14{clip-path:url(#SVGID_30_);}
	.st15{clip-path:url(#SVGID_32_);fill:#65696E;}
	.st16{clip-path:url(#SVGID_34_);}
	.st17{clip-path:url(#SVGID_36_);fill:#65696E;}
	.st18{clip-path:url(#SVGID_38_);}
	.st19{clip-path:url(#SVGID_40_);fill:#65696E;}
	.st20{clip-path:url(#SVGID_42_);}
	.st21{clip-path:url(#SVGID_44_);fill:#65696E;}
	.st22{clip-path:url(#SVGID_46_);}
	.st23{clip-path:url(#SVGID_48_);fill:#65696E;}
</style>
<g>
	<defs>
		<rect id="SVGID_1_" width="80" height="100"/>
	</defs>
	<clipPath id="SVGID_2_">
		<use xlink:href="#SVGID_1_"  style="overflow:visible;"/>
	</clipPath>
	<image style="overflow:visible;clip-path:url(#SVGID_2_);" width="80" height="100" xlink:href="ED151B96C272C39F.png" >
	</image>
</g>
<g class="st0">
	<g>
		<defs>
			<rect id="SVGID_3_" x="8" width="64" height="84"/>
		</defs>
		<clipPath id="SVGID_4_">
			<use xlink:href="#SVGID_3_"  style="overflow:visible;"/>
		</clipPath>
		<g class="st1">
			<defs>
				<path id="SVGID_5_" d="M8,18c0-1.1,0.9-2,2-2h12c1.1,0,2-0.9,2-2V2c0-1.1,0.9-2,2-2h43c1.7,0,3,1.3,3,3v78c0,1.7-1.3,3-3,3H11
					c-1.7,0-3-1.3-3-3V18z"/>
			</defs>
			<clipPath id="SVGID_6_">
				<use xlink:href="#SVGID_5_"  style="overflow:visible;"/>
			</clipPath>
			<g class="st2">
				<defs>
					<rect id="SVGID_7_" x="-8" y="-16" width="96" height="132"/>
				</defs>
				<clipPath id="SVGID_8_">
					<use xlink:href="#SVGID_7_"  style="overflow:visible;"/>
				</clipPath>
				<rect x="3" y="-5" class="st3" width="74" height="94"/>
			</g>
		</g>
		<g class="st1">
			<defs>
				<path id="SVGID_9_" d="M20.6,1.4C21.4,0.6,22,0.9,22,2v10c0,1.1-0.9,2-2,2H10c-1.1,0-1.4-0.6-0.6-1.4L20.6,1.4z"/>
			</defs>
			<clipPath id="SVGID_10_">
				<use xlink:href="#SVGID_9_"  style="overflow:visible;"/>
			</clipPath>
			<g class="st4">
				<defs>
					<rect id="SVGID_11_" x="-8" y="-16" width="96" height="132"/>
				</defs>
				<clipPath id="SVGID_12_">
					<use xlink:href="#SVGID_11_"  style="overflow:visible;"/>
				</clipPath>
				<rect x="4" y="-4" class="st5" width="23" height="23"/>
			</g>
		</g>
		<g class="st1">
			<defs>
				<path id="SVGID_13_" d="M12,31c0-0.6,0.4-1,1-1h14c0.6,0,1,0.4,1,1c0,0.6-0.4,1-1,1H13C12.4,32,12,31.6,12,31z"/>
			</defs>
			<clipPath id="SVGID_14_">
				<use xlink:href="#SVGID_13_"  style="overflow:visible;"/>
			</clipPath>
			<g class="st6">
				<defs>
					<rect id="SVGID_15_" x="-8" y="-16" width="96" height="132"/>
				</defs>
				<clipPath id="SVGID_16_">
					<use xlink:href="#SVGID_15_"  style="overflow:visible;"/>
				</clipPath>
				<rect x="7" y="25" class="st7" width="26" height="12"/>
			</g>
		</g>
		<g class="st1">
			<defs>
				<path id="SVGID_17_" d="M12,55c0-0.6,0.4-1,1-1h14c0.6,0,1,0.4,1,1c0,0.6-0.4,1-1,1H13C12.4,56,12,55.6,12,55z"/>
			</defs>
			<clipPath id="SVGID_18_">
				<use xlink:href="#SVGID_17_"  style="overflow:visible;"/>
			</clipPath>
			<g class="st8">
				<defs>
					<rect id="SVGID_19_" x="-8" y="-16" width="96" height="132"/>
				</defs>
				<clipPath id="SVGID_20_">
					<use xlink:href="#SVGID_19_"  style="overflow:visible;"/>
				</clipPath>
				<rect x="7" y="49" class="st9" width="26" height="12"/>
			</g>
		</g>
		<g class="st1">
			<defs>
				<path id="SVGID_21_" d="M32,31c0-0.6,0.4-1,1-1h14c0.6,0,1,0.4,1,1c0,0.6-0.4,1-1,1H33C32.4,32,32,31.6,32,31z"/>
			</defs>
			<clipPath id="SVGID_22_">
				<use xlink:href="#SVGID_21_"  style="overflow:visible;"/>
			</clipPath>
			<g class="st10">
				<defs>
					<rect id="SVGID_23_" x="-8" y="-16" width="96" height="132"/>
				</defs>
				<clipPath id="SVGID_24_">
					<use xlink:href="#SVGID_23_"  style="overflow:visible;"/>
				</clipPath>
				<rect x="27" y="25" class="st11" width="26" height="12"/>
			</g>
		</g>
		<g class="st1">
			<defs>
				<path id="SVGID_25_" d="M32,55c0-0.6,0.4-1,1-1h14c0.6,0,1,0.4,1,1c0,0.6-0.4,1-1,1H33C32.4,56,32,55.6,32,55z"/>
			</defs>
			<clipPath id="SVGID_26_">
				<use xlink:href="#SVGID_25_"  style="overflow:visible;"/>
			</clipPath>
			<g class="st12">
				<defs>
					<rect id="SVGID_27_" x="-8" y="-16" width="96" height="132"/>
				</defs>
				<clipPath id="SVGID_28_">
					<use xlink:href="#SVGID_27_"  style="overflow:visible;"/>
				</clipPath>
				<rect x="27" y="49" class="st13" width="26" height="12"/>
			</g>
		</g>
		<g class="st1">
			<defs>
				<path id="SVGID_29_" d="M52,31c0-0.6,0.4-1,1-1h14c0.6,0,1,0.4,1,1c0,0.6-0.4,1-1,1H53C52.4,32,52,31.6,52,31z"/>
			</defs>
			<clipPath id="SVGID_30_">
				<use xlink:href="#SVGID_29_"  style="overflow:visible;"/>
			</clipPath>
			<g class="st14">
				<defs>
					<rect id="SVGID_31_" x="-8" y="-16" width="96" height="132"/>
				</defs>
				<clipPath id="SVGID_32_">
					<use xlink:href="#SVGID_31_"  style="overflow:visible;"/>
				</clipPath>
				<rect x="47" y="25" class="st15" width="26" height="12"/>
			</g>
		</g>
		<g class="st1">
			<defs>
				<path id="SVGID_33_" d="M52,55c0-0.6,0.4-1,1-1h14c0.6,0,1,0.4,1,1c0,0.6-0.4,1-1,1H53C52.4,56,52,55.6,52,55z"/>
			</defs>
			<clipPath id="SVGID_34_">
				<use xlink:href="#SVGID_33_"  style="overflow:visible;"/>
			</clipPath>
			<g class="st16">
				<defs>
					<rect id="SVGID_35_" x="-8" y="-16" width="96" height="132"/>
				</defs>
				<clipPath id="SVGID_36_">
					<use xlink:href="#SVGID_35_"  style="overflow:visible;"/>
				</clipPath>
				<rect x="47" y="49" class="st17" width="26" height="12"/>
			</g>
		</g>
		<g class="st1">
			<defs>
				<path id="SVGID_37_" d="M12,43c0-0.6,0.4-1,1-1h14c0.6,0,1,0.4,1,1c0,0.6-0.4,1-1,1H13C12.4,44,12,43.6,12,43z"/>
			</defs>
			<clipPath id="SVGID_38_">
				<use xlink:href="#SVGID_37_"  style="overflow:visible;"/>
			</clipPath>
			<g class="st18">
				<defs>
					<rect id="SVGID_39_" x="-8" y="-16" width="96" height="132"/>
				</defs>
				<clipPath id="SVGID_40_">
					<use xlink:href="#SVGID_39_"  style="overflow:visible;"/>
				</clipPath>
				<rect x="7" y="37" class="st19" width="26" height="12"/>
			</g>
		</g>
		<g class="st1">
			<defs>
				<path id="SVGID_41_" d="M32,43c0-0.6,0.4-1,1-1h14c0.6,0,1,0.4,1,1c0,0.6-0.4,1-1,1H33C32.4,44,32,43.6,32,43z"/>
			</defs>
			<clipPath id="SVGID_42_">
				<use xlink:href="#SVGID_41_"  style="overflow:visible;"/>
			</clipPath>
			<g class="st20">
				<defs>
					<rect id="SVGID_43_" x="-8" y="-16" width="96" height="132"/>
				</defs>
				<clipPath id="SVGID_44_">
					<use xlink:href="#SVGID_43_"  style="overflow:visible;"/>
				</clipPath>
				<rect x="27" y="37" class="st21" width="26" height="12"/>
			</g>
		</g>
		<g class="st1">
			<defs>
				<path id="SVGID_45_" d="M52,43c0-0.6,0.4-1,1-1h14c0.6,0,1,0.4,1,1c0,0.6-0.4,1-1,1H53C52.4,44,52,43.6,52,43z"/>
			</defs>
			<clipPath id="SVGID_46_">
				<use xlink:href="#SVGID_45_"  style="overflow:visible;"/>
			</clipPath>
			<g class="st22">
				<defs>
					<rect id="SVGID_47_" x="-8" y="-16" width="96" height="132"/>
				</defs>
				<clipPath id="SVGID_48_">
					<use xlink:href="#SVGID_47_"  style="overflow:visible;"/>
				</clipPath>
				<rect x="47" y="37" class="st23" width="26" height="12"/>
			</g>
		</g>
	</g>
</g>
</svg>
