<?xml version="1.0" encoding="utf-8"?>
<!-- Generator: Adobe Illustrator 21.0.2, SVG Export Plug-In . SVG Version: 6.00 Build 0)  -->
<svg version="1.1" id="Layer_1" xmlns="http://www.w3.org/2000/svg" xmlns:xlink="http://www.w3.org/1999/xlink" x="0px" y="0px"
	 viewBox="0 0 60.8 60.8" style="enable-background:new 0 0 60.8 60.8;" xml:space="preserve">
<style type="text/css">
	.st0{clip-path:url(#SVGID_2_);}
</style>
<g>
	<defs>
		<rect id="SVGID_1_" width="60.8" height="60.8"/>
	</defs>
	<clipPath id="SVGID_2_">
		<use xlink:href="#SVGID_1_"  style="overflow:visible;"/>
	</clipPath>
	<path class="st0" d="M57.9,53.9L43.9,39.8c7-9.1,6.2-22-1.9-30.3c-4.3-4.4-10.2-6.8-16.3-6.7c-6.1,0-12,2.4-16.3,6.7
		c-4.3,4.3-6.7,10.1-6.7,16.2c0,12.6,10.2,22.9,22.8,22.9h0.1c5.1,0,10.1-1.7,14.1-4.8l14,14.1L57.9,53.9z M42.8,25.7
		c0,4.5-1.8,8.9-5,12.1c-6.6,6.7-17.4,6.8-24.1,0.1c0,0-0.1-0.1-0.1-0.1c-6.7-6.7-6.7-17.5,0-24.3c6.7-6.7,17.5-6.7,24.2,0
		C41,16.7,42.8,21.1,42.8,25.7"/>
</g>
</svg>
