<svg id="Layer_1" data-name="Layer 1" xmlns="http://www.w3.org/2000/svg" xmlns:xlink="http://www.w3.org/1999/xlink" viewBox="0 0 80 91.19"><defs><clipPath id="clip-path" transform="translate(-7.39 -6.05)"><rect width="96" height="104" fill="none"/></clipPath></defs><title>security_center</title><g clip-path="url(#clip-path)"><path d="M47.39,97.24l-.82-.37A93.43,93.43,0,0,1,27.11,84.46C14.21,73.77,7.39,61.52,7.39,49.05v-43h80v43c0,12.47-6.82,24.72-19.73,35.41A93.43,93.43,0,0,1,48.2,96.87Zm-36-87.19v39c0,25.08,30.56,41.13,36,43.78,5.43-2.65,36-18.73,36-43.78v-39Z" transform="translate(-7.39 -6.05)" fill="#e5b522"/><path d="M51,30.81l0-6.42h-3.9l0,6.24-3.12,0,0-6.29H40.08l0,6.41-2.49,0v0l-5.39,0v4.17s2.88-.05,2.84,0a2,2,0,0,1,2.24,1.72l0,7.31a2.13,2.13,0,0,1,.41,0h-.41l0,10.24a1.38,1.38,0,0,1-1.47,1.29c0,.05-2.84,0-2.84,0l-.8,4.66,5.09,0,2.79,0,0,6.49h3.91l0-6.42c1.07,0,2.11,0,3.12,0l0,6.39,3.91,0,0-6.48c6.56-.35,11.17-2,11.76-8.15.48-5-1.85-7.19-5.57-8.1,2.27-1.15,3.69-3.17,3.37-6.56C60,32.83,56,31.27,51,30.81m3.94,20.51c0,4.85-8.32,4.26-11,4.26L44,47c2.65,0,10.95-.72,10.94,4.34M53.15,39.18c0,4.41-6.94,3.87-9.14,3.86l0-7.8c2.2,0,9.13-.66,9.11,3.94" transform="translate(-7.39 -6.05)" fill="#e5b522"/></g></svg>